<?xml version="1.0" encoding="iso-8859-1"?>
<!-- Generator: Adobe Illustrator 18.0.0, SVG Export Plug-In . SVG Version: 6.00 Build 0)  -->
<!DOCTYPE svg PUBLIC "-//W3C//DTD SVG 1.1//EN" "http://www.w3.org/Graphics/SVG/1.1/DTD/svg11.dtd">
<svg xmlns="http://www.w3.org/2000/svg" xmlns:xlink="http://www.w3.org/1999/xlink" version="1.1" id="Capa_1" x="0px" y="0px" viewBox="0 0 432 432" style="enable-background:new 0 0 432 432;" xml:space="preserve" width="512px" height="512px">
<path d="M309.362,180.129v-43.311c0-2.207-1.024-4.173-2.619-5.456c-0.008-0.007-0.014-0.016-0.022-0.022L223,64.731V7  c0-3.866-3.134-7-7-7s-7,3.134-7,7v57.731l-83.72,66.61c-0.008,0.006-0.013,0.014-0.021,0.02c-1.597,1.283-2.621,3.249-2.621,5.457  v43.311c0,3.866,3.134,7,7,7h51.214l-55.576,44.213c-0.01,0.008-0.019,0.02-0.029,0.028c-1.59,1.283-2.609,3.246-2.609,5.448v43.311  c0,3.866,3.134,7,7,7h51.214l-55.576,44.213c-0.01,0.008-0.019,0.02-0.029,0.028c-1.59,1.283-2.609,3.246-2.609,5.448v43.311  c0,3.866,3.134,7,7,7H209V425c0,3.866,3.134,7,7,7s7-3.134,7-7v-37.871h79.362c3.866,0,7-3.134,7-7v-43.311  c0-2.205-1.022-4.17-2.615-5.453c-0.008-0.007-0.015-0.017-0.024-0.023l-55.569-44.213h51.208c3.866,0,7-3.134,7-7v-43.311  c0-2.205-1.022-4.17-2.615-5.453c-0.008-0.007-0.015-0.017-0.024-0.023l-55.569-44.213h51.208  C306.228,187.129,309.362,183.995,309.362,180.129z M136.638,143.818h158.724v7.655H136.638V143.818z M209,82.622V109  c0,3.866,3.134,7,7,7s7-3.134,7-7V82.622l59.321,47.197H149.68L209,82.622z M136.638,243.82h158.724v7.654H136.638V243.82z   M136.638,343.82h158.724v7.654H136.638V343.82z M136.638,373.129v-7.655h158.724v7.655H136.638z M282.322,329.818H149.679  l53.661-42.689H209V313c0,3.866,3.134,7,7,7s7-3.134,7-7v-25.871h5.668L282.322,329.818z M136.638,273.129v-7.655h158.724v7.655  H136.638z M282.322,229.818H149.679l53.661-42.689H209V211c0,3.866,3.134,7,7,7s7-3.134,7-7v-23.871h5.668L282.322,229.818z   M136.638,173.129v-7.655h158.724v7.655H136.638z" fill="#2C2C2A"/>
<g>
</g>
<g>
</g>
<g>
</g>
<g>
</g>
<g>
</g>
<g>
</g>
<g>
</g>
<g>
</g>
<g>
</g>
<g>
</g>
<g>
</g>
<g>
</g>
<g>
</g>
<g>
</g>
<g>
</g>
</svg>
